<mxfile host="65bd71144e" modified="2021-02-08T09:26:28.704Z" agent="5.0 (Windows NT 10.0; Win64; x64) AppleWebKit/537.36 (KHTML, like Gecko) Code/1.53.0 Chrome/87.0.4280.141 Electron/11.2.1 Safari/537.36" etag="nrBD9smLTPl1_hc8HZS4" version="13.10.0" type="embed">
    <diagram id="j7UHTnoFtcJZtpzmDvCM" name="Page-1">
        <mxGraphModel dx="237" dy="575" grid="0" gridSize="10" guides="1" tooltips="1" connect="1" arrows="1" fold="1" page="1" pageScale="1" pageWidth="583" pageHeight="827" background="#2E3440" math="0" shadow="0">
            <root>
                <mxCell id="0"/>
                <mxCell id="1" parent="0"/>
                <mxCell id="453" style="edgeStyle=orthogonalEdgeStyle;shape=link;rounded=0;comic=0;orthogonalLoop=1;jettySize=auto;html=1;exitX=0.5;exitY=0;exitDx=0;exitDy=0;entryX=0.5;entryY=1;entryDx=0;entryDy=0;fontFamily=Lucida Console;fontColor=#D8DEE9;strokeColor=#D8DEE9;" parent="1" source="58" target="446" edge="1">
                    <mxGeometry relative="1" as="geometry"/>
                </mxCell>
                <mxCell id="58" value="Room" style="shape=table;startSize=30;container=1;collapsible=1;childLayout=tableLayout;fixedRows=1;rowLines=0;fontStyle=1;align=center;resizeLast=1;opacity=90;strokeWidth=2;swimlaneFillColor=#4C566A;fillColor=#BF616A;fontFamily=Lucida Console;fontColor=#D8DEE9;strokeColor=none;" parent="1" vertex="1">
                    <mxGeometry x="774" y="692" width="180" height="220" as="geometry"/>
                </mxCell>
                <mxCell id="59" value="" style="shape=partialRectangle;collapsible=0;dropTarget=0;pointerEvents=0;fillColor=none;top=0;left=0;bottom=1;right=0;points=[[0,0.5],[1,0.5]];portConstraint=eastwest;fontFamily=Lucida Console;fontColor=#D8DEE9;strokeColor=#D8DEE9;" parent="58" vertex="1">
                    <mxGeometry y="30" width="180" height="30" as="geometry"/>
                </mxCell>
                <mxCell id="60" value="PK" style="shape=partialRectangle;connectable=0;fillColor=none;top=0;left=0;bottom=0;right=0;fontStyle=1;overflow=hidden;fontFamily=Lucida Console;fontColor=#D8DEE9;strokeColor=#D8DEE9;" parent="59" vertex="1">
                    <mxGeometry width="30" height="30" as="geometry"/>
                </mxCell>
                <mxCell id="61" value="roomID" style="shape=partialRectangle;connectable=0;fillColor=none;top=0;left=0;bottom=0;right=0;align=left;spacingLeft=6;fontStyle=5;overflow=hidden;fontFamily=Lucida Console;fontColor=#D8DEE9;strokeColor=#D8DEE9;" parent="59" vertex="1">
                    <mxGeometry x="30" width="150" height="30" as="geometry"/>
                </mxCell>
                <mxCell id="62" value="" style="shape=partialRectangle;collapsible=0;dropTarget=0;pointerEvents=0;fillColor=none;top=0;left=0;bottom=0;right=0;points=[[0,0.5],[1,0.5]];portConstraint=eastwest;fontFamily=Lucida Console;fontColor=#D8DEE9;strokeColor=#D8DEE9;" parent="58" vertex="1">
                    <mxGeometry y="60" width="180" height="30" as="geometry"/>
                </mxCell>
                <mxCell id="63" value="" style="shape=partialRectangle;connectable=0;fillColor=none;top=0;left=0;bottom=0;right=0;editable=1;overflow=hidden;fontFamily=Lucida Console;fontColor=#D8DEE9;strokeColor=#D8DEE9;" parent="62" vertex="1">
                    <mxGeometry width="30" height="30" as="geometry"/>
                </mxCell>
                <mxCell id="64" value="name" style="shape=partialRectangle;connectable=0;fillColor=none;top=0;left=0;bottom=0;right=0;align=left;spacingLeft=6;overflow=hidden;fontFamily=Lucida Console;fontColor=#D8DEE9;strokeColor=#D8DEE9;" parent="62" vertex="1">
                    <mxGeometry x="30" width="150" height="30" as="geometry"/>
                </mxCell>
                <mxCell id="71" value="" style="shape=partialRectangle;collapsible=0;dropTarget=0;pointerEvents=0;fillColor=none;top=0;left=0;bottom=0;right=0;points=[[0,0.5],[1,0.5]];portConstraint=eastwest;fontFamily=Lucida Console;fontColor=#D8DEE9;strokeColor=#D8DEE9;" parent="58" vertex="1">
                    <mxGeometry y="90" width="180" height="30" as="geometry"/>
                </mxCell>
                <mxCell id="72" value="" style="shape=partialRectangle;connectable=0;fillColor=none;top=0;left=0;bottom=0;right=0;editable=1;overflow=hidden;fontFamily=Lucida Console;fontColor=#D8DEE9;strokeColor=#D8DEE9;" parent="71" vertex="1">
                    <mxGeometry width="30" height="30" as="geometry"/>
                </mxCell>
                <mxCell id="73" value="floor_number" style="shape=partialRectangle;connectable=0;fillColor=none;top=0;left=0;bottom=0;right=0;align=left;spacingLeft=6;overflow=hidden;fontFamily=Lucida Console;fontColor=#D8DEE9;strokeColor=#D8DEE9;" parent="71" vertex="1">
                    <mxGeometry x="30" width="150" height="30" as="geometry"/>
                </mxCell>
                <mxCell id="74" value="" style="shape=partialRectangle;collapsible=0;dropTarget=0;pointerEvents=0;fillColor=none;top=0;left=0;bottom=0;right=0;points=[[0,0.5],[1,0.5]];portConstraint=eastwest;fontFamily=Lucida Console;fontColor=#D8DEE9;strokeColor=#D8DEE9;" parent="58" vertex="1">
                    <mxGeometry y="120" width="180" height="30" as="geometry"/>
                </mxCell>
                <mxCell id="75" value="" style="shape=partialRectangle;connectable=0;fillColor=none;top=0;left=0;bottom=0;right=0;editable=1;overflow=hidden;fontFamily=Lucida Console;fontColor=#D8DEE9;strokeColor=#D8DEE9;" parent="74" vertex="1">
                    <mxGeometry width="30" height="30" as="geometry"/>
                </mxCell>
                <mxCell id="76" value="room_number" style="shape=partialRectangle;connectable=0;fillColor=none;top=0;left=0;bottom=0;right=0;align=left;spacingLeft=6;overflow=hidden;fontFamily=Lucida Console;fontColor=#D8DEE9;strokeColor=#D8DEE9;" parent="74" vertex="1">
                    <mxGeometry x="30" width="150" height="30" as="geometry"/>
                </mxCell>
                <mxCell id="86" value="" style="shape=partialRectangle;collapsible=0;dropTarget=0;pointerEvents=0;fillColor=none;top=0;left=0;bottom=0;right=0;points=[[0,0.5],[1,0.5]];portConstraint=eastwest;fontFamily=Lucida Console;fontColor=#D8DEE9;strokeColor=#D8DEE9;" parent="58" vertex="1">
                    <mxGeometry y="150" width="180" height="30" as="geometry"/>
                </mxCell>
                <mxCell id="87" value="" style="shape=partialRectangle;connectable=0;fillColor=none;top=0;left=0;bottom=0;right=0;editable=1;overflow=hidden;fontFamily=Lucida Console;fontColor=#D8DEE9;strokeColor=#D8DEE9;" parent="86" vertex="1">
                    <mxGeometry width="30" height="30" as="geometry"/>
                </mxCell>
                <mxCell id="88" value="price_number" style="shape=partialRectangle;connectable=0;fillColor=none;top=0;left=0;bottom=0;right=0;align=left;spacingLeft=6;overflow=hidden;fontFamily=Lucida Console;fontColor=#D8DEE9;strokeColor=#D8DEE9;" parent="86" vertex="1">
                    <mxGeometry x="30" width="150" height="30" as="geometry"/>
                </mxCell>
                <mxCell id="89" value="" style="shape=partialRectangle;collapsible=0;dropTarget=0;pointerEvents=0;fillColor=none;top=0;left=0;bottom=0;right=0;points=[[0,0.5],[1,0.5]];portConstraint=eastwest;fontFamily=Lucida Console;fontColor=#D8DEE9;strokeColor=#D8DEE9;" parent="58" vertex="1">
                    <mxGeometry y="180" width="180" height="30" as="geometry"/>
                </mxCell>
                <mxCell id="90" value="" style="shape=partialRectangle;connectable=0;fillColor=none;top=0;left=0;bottom=0;right=0;editable=1;overflow=hidden;fontFamily=Lucida Console;fontColor=#D8DEE9;strokeColor=#D8DEE9;" parent="89" vertex="1">
                    <mxGeometry width="30" height="30" as="geometry"/>
                </mxCell>
                <mxCell id="91" value="status" style="shape=partialRectangle;connectable=0;fillColor=none;top=0;left=0;bottom=0;right=0;align=left;spacingLeft=6;overflow=hidden;fontFamily=Lucida Console;fontColor=#D8DEE9;strokeColor=#D8DEE9;" parent="89" vertex="1">
                    <mxGeometry x="30" width="150" height="30" as="geometry"/>
                </mxCell>
                <mxCell id="92" value="User" style="shape=table;startSize=30;container=1;collapsible=1;childLayout=tableLayout;fixedRows=1;rowLines=0;fontStyle=1;align=center;resizeLast=1;opacity=90;strokeWidth=2;swimlaneFillColor=#4C566A;fillColor=#A3BE8C;fontFamily=Lucida Console;fontColor=#D8DEE9;strokeColor=none;" parent="1" vertex="1">
                    <mxGeometry x="1366" y="692" width="180" height="250" as="geometry"/>
                </mxCell>
                <mxCell id="93" value="" style="shape=partialRectangle;collapsible=0;dropTarget=0;pointerEvents=0;fillColor=none;top=0;left=0;bottom=1;right=0;points=[[0,0.5],[1,0.5]];portConstraint=eastwest;fontFamily=Lucida Console;fontColor=#D8DEE9;strokeColor=#D8DEE9;" parent="92" vertex="1">
                    <mxGeometry y="30" width="180" height="30" as="geometry"/>
                </mxCell>
                <mxCell id="94" value="PK" style="shape=partialRectangle;connectable=0;fillColor=none;top=0;left=0;bottom=0;right=0;fontStyle=1;overflow=hidden;fontFamily=Lucida Console;fontColor=#D8DEE9;strokeColor=#D8DEE9;" parent="93" vertex="1">
                    <mxGeometry width="30" height="30" as="geometry"/>
                </mxCell>
                <mxCell id="95" value="customerID" style="shape=partialRectangle;connectable=0;fillColor=none;top=0;left=0;bottom=0;right=0;align=left;spacingLeft=6;fontStyle=5;overflow=hidden;fontFamily=Lucida Console;fontColor=#D8DEE9;strokeColor=#D8DEE9;" parent="93" vertex="1">
                    <mxGeometry x="30" width="150" height="30" as="geometry"/>
                </mxCell>
                <mxCell id="96" value="" style="shape=partialRectangle;collapsible=0;dropTarget=0;pointerEvents=0;fillColor=none;top=0;left=0;bottom=0;right=0;points=[[0,0.5],[1,0.5]];portConstraint=eastwest;fontFamily=Lucida Console;fontColor=#D8DEE9;strokeColor=#D8DEE9;" parent="92" vertex="1">
                    <mxGeometry y="60" width="180" height="30" as="geometry"/>
                </mxCell>
                <mxCell id="97" value="" style="shape=partialRectangle;connectable=0;fillColor=none;top=0;left=0;bottom=0;right=0;editable=1;overflow=hidden;fontFamily=Lucida Console;fontColor=#D8DEE9;strokeColor=#D8DEE9;" parent="96" vertex="1">
                    <mxGeometry width="30" height="30" as="geometry"/>
                </mxCell>
                <mxCell id="98" value="name" style="shape=partialRectangle;connectable=0;fillColor=none;top=0;left=0;bottom=0;right=0;align=left;spacingLeft=6;overflow=hidden;fontFamily=Lucida Console;fontColor=#D8DEE9;strokeColor=#D8DEE9;" parent="96" vertex="1">
                    <mxGeometry x="30" width="150" height="30" as="geometry"/>
                </mxCell>
                <mxCell id="99" value="" style="shape=partialRectangle;collapsible=0;dropTarget=0;pointerEvents=0;fillColor=none;top=0;left=0;bottom=0;right=0;points=[[0,0.5],[1,0.5]];portConstraint=eastwest;fontFamily=Lucida Console;fontColor=#D8DEE9;strokeColor=#D8DEE9;" parent="92" vertex="1">
                    <mxGeometry y="90" width="180" height="30" as="geometry"/>
                </mxCell>
                <mxCell id="100" value="" style="shape=partialRectangle;connectable=0;fillColor=none;top=0;left=0;bottom=0;right=0;editable=1;overflow=hidden;fontFamily=Lucida Console;fontColor=#D8DEE9;strokeColor=#D8DEE9;" parent="99" vertex="1">
                    <mxGeometry width="30" height="30" as="geometry"/>
                </mxCell>
                <mxCell id="101" value="lastname" style="shape=partialRectangle;connectable=0;fillColor=none;top=0;left=0;bottom=0;right=0;align=left;spacingLeft=6;overflow=hidden;fontFamily=Lucida Console;fontColor=#D8DEE9;strokeColor=#D8DEE9;" parent="99" vertex="1">
                    <mxGeometry x="30" width="150" height="30" as="geometry"/>
                </mxCell>
                <mxCell id="102" value="" style="shape=partialRectangle;collapsible=0;dropTarget=0;pointerEvents=0;fillColor=none;top=0;left=0;bottom=0;right=0;points=[[0,0.5],[1,0.5]];portConstraint=eastwest;fontFamily=Lucida Console;fontColor=#D8DEE9;strokeColor=#D8DEE9;" parent="92" vertex="1">
                    <mxGeometry y="120" width="180" height="30" as="geometry"/>
                </mxCell>
                <mxCell id="103" value="" style="shape=partialRectangle;connectable=0;fillColor=none;top=0;left=0;bottom=0;right=0;editable=1;overflow=hidden;fontFamily=Lucida Console;fontColor=#D8DEE9;strokeColor=#D8DEE9;" parent="102" vertex="1">
                    <mxGeometry width="30" height="30" as="geometry"/>
                </mxCell>
                <mxCell id="104" value="genre" style="shape=partialRectangle;connectable=0;fillColor=none;top=0;left=0;bottom=0;right=0;align=left;spacingLeft=6;overflow=hidden;fontFamily=Lucida Console;fontColor=#D8DEE9;strokeColor=#D8DEE9;" parent="102" vertex="1">
                    <mxGeometry x="30" width="150" height="30" as="geometry"/>
                </mxCell>
                <mxCell id="120" value="" style="shape=partialRectangle;collapsible=0;dropTarget=0;pointerEvents=0;fillColor=none;top=0;left=0;bottom=0;right=0;points=[[0,0.5],[1,0.5]];portConstraint=eastwest;fontFamily=Lucida Console;fontColor=#D8DEE9;strokeColor=#D8DEE9;" parent="92" vertex="1">
                    <mxGeometry y="150" width="180" height="30" as="geometry"/>
                </mxCell>
                <mxCell id="121" value="" style="shape=partialRectangle;connectable=0;fillColor=none;top=0;left=0;bottom=0;right=0;editable=1;overflow=hidden;fontFamily=Lucida Console;fontColor=#D8DEE9;strokeColor=#D8DEE9;" parent="120" vertex="1">
                    <mxGeometry width="30" height="30" as="geometry"/>
                </mxCell>
                <mxCell id="122" value="email_address" style="shape=partialRectangle;connectable=0;fillColor=none;top=0;left=0;bottom=0;right=0;align=left;spacingLeft=6;overflow=hidden;fontFamily=Lucida Console;fontColor=#D8DEE9;strokeColor=#D8DEE9;" parent="120" vertex="1">
                    <mxGeometry x="30" width="150" height="30" as="geometry"/>
                </mxCell>
                <mxCell id="123" value="" style="shape=partialRectangle;collapsible=0;dropTarget=0;pointerEvents=0;fillColor=none;top=0;left=0;bottom=0;right=0;points=[[0,0.5],[1,0.5]];portConstraint=eastwest;fontFamily=Lucida Console;fontColor=#D8DEE9;strokeColor=#D8DEE9;" parent="92" vertex="1">
                    <mxGeometry y="180" width="180" height="30" as="geometry"/>
                </mxCell>
                <mxCell id="124" value="" style="shape=partialRectangle;connectable=0;fillColor=none;top=0;left=0;bottom=0;right=0;editable=1;overflow=hidden;fontFamily=Lucida Console;fontColor=#D8DEE9;strokeColor=#D8DEE9;" parent="123" vertex="1">
                    <mxGeometry width="30" height="30" as="geometry"/>
                </mxCell>
                <mxCell id="125" value="phone_number" style="shape=partialRectangle;connectable=0;fillColor=none;top=0;left=0;bottom=0;right=0;align=left;spacingLeft=6;overflow=hidden;fontFamily=Lucida Console;fontColor=#D8DEE9;strokeColor=#D8DEE9;" parent="123" vertex="1">
                    <mxGeometry x="30" width="150" height="30" as="geometry"/>
                </mxCell>
                <mxCell id="126" value="" style="shape=partialRectangle;collapsible=0;dropTarget=0;pointerEvents=0;fillColor=none;top=0;left=0;bottom=0;right=0;points=[[0,0.5],[1,0.5]];portConstraint=eastwest;fontFamily=Lucida Console;fontColor=#D8DEE9;strokeColor=#D8DEE9;" parent="92" vertex="1">
                    <mxGeometry y="210" width="180" height="30" as="geometry"/>
                </mxCell>
                <mxCell id="127" value="" style="shape=partialRectangle;connectable=0;fillColor=none;top=0;left=0;bottom=0;right=0;editable=1;overflow=hidden;fontFamily=Lucida Console;fontColor=#D8DEE9;strokeColor=#D8DEE9;" parent="126" vertex="1">
                    <mxGeometry width="30" height="30" as="geometry"/>
                </mxCell>
                <mxCell id="128" value="document_number" style="shape=partialRectangle;connectable=0;fillColor=none;top=0;left=0;bottom=0;right=0;align=left;spacingLeft=6;overflow=hidden;fontFamily=Lucida Console;fontColor=#D8DEE9;strokeColor=#D8DEE9;" parent="126" vertex="1">
                    <mxGeometry x="30" width="150" height="30" as="geometry"/>
                </mxCell>
                <mxCell id="129" value="Booking" style="shape=table;startSize=30;container=1;collapsible=1;childLayout=tableLayout;fixedRows=1;rowLines=0;fontStyle=1;align=center;resizeLast=1;opacity=90;strokeWidth=2;swimlaneFillColor=#4C566A;fillColor=#EBCB8B;fontFamily=Lucida Console;fontColor=#D8DEE9;strokeColor=none;" parent="1" vertex="1">
                    <mxGeometry x="774" y="978" width="180" height="210" as="geometry"/>
                </mxCell>
                <mxCell id="130" value="" style="shape=partialRectangle;collapsible=0;dropTarget=0;pointerEvents=0;fillColor=none;top=0;left=0;bottom=1;right=0;points=[[0,0.5],[1,0.5]];portConstraint=eastwest;fontFamily=Lucida Console;fontColor=#D8DEE9;strokeColor=#D8DEE9;" parent="129" vertex="1">
                    <mxGeometry y="30" width="180" height="30" as="geometry"/>
                </mxCell>
                <mxCell id="131" value="PK" style="shape=partialRectangle;connectable=0;fillColor=none;top=0;left=0;bottom=0;right=0;fontStyle=1;overflow=hidden;fontFamily=Lucida Console;fontColor=#D8DEE9;strokeColor=#D8DEE9;" parent="130" vertex="1">
                    <mxGeometry width="30" height="30" as="geometry"/>
                </mxCell>
                <mxCell id="132" value="bookingID" style="shape=partialRectangle;connectable=0;fillColor=none;top=0;left=0;bottom=0;right=0;align=left;spacingLeft=6;fontStyle=5;overflow=hidden;fontFamily=Lucida Console;fontColor=#D8DEE9;strokeColor=#D8DEE9;" parent="130" vertex="1">
                    <mxGeometry x="30" width="150" height="30" as="geometry"/>
                </mxCell>
                <mxCell id="133" value="" style="shape=partialRectangle;collapsible=0;dropTarget=0;pointerEvents=0;fillColor=none;top=0;left=0;bottom=0;right=0;points=[[0,0.5],[1,0.5]];portConstraint=eastwest;fontFamily=Lucida Console;fontColor=#D8DEE9;strokeColor=#D8DEE9;" parent="129" vertex="1">
                    <mxGeometry y="60" width="180" height="30" as="geometry"/>
                </mxCell>
                <mxCell id="134" value="" style="shape=partialRectangle;connectable=0;fillColor=none;top=0;left=0;bottom=0;right=0;editable=1;overflow=hidden;fontFamily=Lucida Console;fontColor=#D8DEE9;strokeColor=#D8DEE9;" parent="133" vertex="1">
                    <mxGeometry width="30" height="30" as="geometry"/>
                </mxCell>
                <mxCell id="135" value="date" style="shape=partialRectangle;connectable=0;fillColor=none;top=0;left=0;bottom=0;right=0;align=left;spacingLeft=6;overflow=hidden;fontFamily=Lucida Console;fontColor=#D8DEE9;strokeColor=#D8DEE9;" parent="133" vertex="1">
                    <mxGeometry x="30" width="150" height="30" as="geometry"/>
                </mxCell>
                <mxCell id="136" value="" style="shape=partialRectangle;collapsible=0;dropTarget=0;pointerEvents=0;fillColor=none;top=0;left=0;bottom=0;right=0;points=[[0,0.5],[1,0.5]];portConstraint=eastwest;fontFamily=Lucida Console;fontColor=#D8DEE9;strokeColor=#D8DEE9;" parent="129" vertex="1">
                    <mxGeometry y="90" width="180" height="30" as="geometry"/>
                </mxCell>
                <mxCell id="137" value="" style="shape=partialRectangle;connectable=0;fillColor=none;top=0;left=0;bottom=0;right=0;editable=1;overflow=hidden;fontFamily=Lucida Console;fontColor=#D8DEE9;strokeColor=#D8DEE9;" parent="136" vertex="1">
                    <mxGeometry width="30" height="30" as="geometry"/>
                </mxCell>
                <mxCell id="138" value="nights_numbers" style="shape=partialRectangle;connectable=0;fillColor=none;top=0;left=0;bottom=0;right=0;align=left;spacingLeft=6;overflow=hidden;fontFamily=Lucida Console;fontColor=#D8DEE9;strokeColor=#D8DEE9;" parent="136" vertex="1">
                    <mxGeometry x="30" width="150" height="30" as="geometry"/>
                </mxCell>
                <mxCell id="139" value="" style="shape=partialRectangle;collapsible=0;dropTarget=0;pointerEvents=0;fillColor=none;top=0;left=0;bottom=0;right=0;points=[[0,0.5],[1,0.5]];portConstraint=eastwest;fontFamily=Lucida Console;fontColor=#D8DEE9;" parent="129" vertex="1">
                    <mxGeometry y="120" width="180" height="30" as="geometry"/>
                </mxCell>
                <mxCell id="140" value="" style="shape=partialRectangle;connectable=0;fillColor=none;top=0;left=0;bottom=0;right=0;editable=1;overflow=hidden;fontFamily=Lucida Console;fontColor=#D8DEE9;strokeColor=#D8DEE9;" parent="139" vertex="1">
                    <mxGeometry width="30" height="30" as="geometry"/>
                </mxCell>
                <mxCell id="141" value="check_in" style="shape=partialRectangle;connectable=0;fillColor=none;top=0;left=0;bottom=0;right=0;align=left;spacingLeft=6;overflow=hidden;fontFamily=Lucida Console;fontColor=#D8DEE9;strokeColor=none;" parent="139" vertex="1">
                    <mxGeometry x="30" width="150" height="30" as="geometry"/>
                </mxCell>
                <mxCell id="142" value="" style="shape=partialRectangle;collapsible=0;dropTarget=0;pointerEvents=0;fillColor=none;top=0;left=0;bottom=0;right=0;points=[[0,0.5],[1,0.5]];portConstraint=eastwest;fontFamily=Lucida Console;fontColor=#D8DEE9;strokeColor=#D8DEE9;" parent="129" vertex="1">
                    <mxGeometry y="150" width="180" height="30" as="geometry"/>
                </mxCell>
                <mxCell id="143" value="" style="shape=partialRectangle;connectable=0;fillColor=none;top=0;left=0;bottom=0;right=0;editable=1;overflow=hidden;fontFamily=Lucida Console;fontColor=#D8DEE9;strokeColor=#D8DEE9;" parent="142" vertex="1">
                    <mxGeometry width="30" height="30" as="geometry"/>
                </mxCell>
                <mxCell id="144" value="check_out" style="shape=partialRectangle;connectable=0;fillColor=none;top=0;left=0;bottom=0;right=0;align=left;spacingLeft=6;overflow=hidden;fontFamily=Lucida Console;fontColor=#D8DEE9;strokeColor=#D8DEE9;" parent="142" vertex="1">
                    <mxGeometry x="30" width="150" height="30" as="geometry"/>
                </mxCell>
                <mxCell id="148" value="" style="shape=partialRectangle;collapsible=0;dropTarget=0;pointerEvents=0;fillColor=none;top=0;left=0;bottom=0;right=0;points=[[0,0.5],[1,0.5]];portConstraint=eastwest;fontFamily=Lucida Console;fontColor=#D8DEE9;strokeColor=#D8DEE9;" parent="129" vertex="1">
                    <mxGeometry y="180" width="180" height="30" as="geometry"/>
                </mxCell>
                <mxCell id="149" value="" style="shape=partialRectangle;connectable=0;fillColor=none;top=0;left=0;bottom=0;right=0;editable=1;overflow=hidden;fontFamily=Lucida Console;fontColor=#D8DEE9;strokeColor=#D8DEE9;" parent="148" vertex="1">
                    <mxGeometry width="30" height="30" as="geometry"/>
                </mxCell>
                <mxCell id="150" value="total_amount" style="shape=partialRectangle;connectable=0;fillColor=none;top=0;left=0;bottom=0;right=0;align=left;spacingLeft=6;overflow=hidden;fontFamily=Lucida Console;fontColor=#D8DEE9;strokeColor=#D8DEE9;" parent="148" vertex="1">
                    <mxGeometry x="30" width="150" height="30" as="geometry"/>
                </mxCell>
                <mxCell id="245" style="edgeStyle=orthogonalEdgeStyle;shape=link;rounded=0;orthogonalLoop=1;jettySize=auto;html=1;exitX=0.5;exitY=1;exitDx=0;exitDy=0;entryX=0.5;entryY=0;entryDx=0;entryDy=0;snapToPoint=0;fixDash=0;comic=0;backgroundOutline=0;metaEdit=0;fontFamily=Lucida Console;fontColor=#D8DEE9;strokeColor=#D8DEE9;" parent="1" source="354" target="92" edge="1">
                    <mxGeometry relative="1" as="geometry"/>
                </mxCell>
                <mxCell id="451" style="edgeStyle=orthogonalEdgeStyle;shape=link;rounded=0;comic=0;orthogonalLoop=1;jettySize=auto;html=1;exitX=0.5;exitY=1;exitDx=0;exitDy=0;entryX=0.5;entryY=0;entryDx=0;entryDy=0;fontFamily=Lucida Console;fontColor=#D8DEE9;strokeColor=#D8DEE9;" parent="1" source="198" target="417" edge="1">
                    <mxGeometry relative="1" as="geometry"/>
                </mxCell>
                <mxCell id="198" value="User address details" style="shape=table;startSize=30;container=1;collapsible=1;childLayout=tableLayout;fixedRows=1;rowLines=0;fontStyle=1;align=center;resizeLast=1;opacity=90;strokeWidth=2;swimlaneFillColor=#4C566A;fillColor=#8FBCBB;fontFamily=Lucida Console;fontColor=#D8DEE9;strokeColor=none;" parent="1" vertex="1">
                    <mxGeometry x="1366" y="289" width="180" height="250" as="geometry"/>
                </mxCell>
                <mxCell id="199" value="" style="shape=partialRectangle;collapsible=0;dropTarget=0;pointerEvents=0;fillColor=none;top=0;left=0;bottom=1;right=0;points=[[0,0.5],[1,0.5]];portConstraint=eastwest;fontFamily=Lucida Console;fontColor=#D8DEE9;strokeColor=#D8DEE9;" parent="198" vertex="1">
                    <mxGeometry y="30" width="180" height="30" as="geometry"/>
                </mxCell>
                <mxCell id="200" value="PK" style="shape=partialRectangle;connectable=0;fillColor=none;top=0;left=0;bottom=0;right=0;fontStyle=1;overflow=hidden;fontFamily=Lucida Console;fontColor=#D8DEE9;strokeColor=#D8DEE9;" parent="199" vertex="1">
                    <mxGeometry width="30" height="30" as="geometry"/>
                </mxCell>
                <mxCell id="201" value="customer_detalisID" style="shape=partialRectangle;connectable=0;fillColor=none;top=0;left=0;bottom=0;right=0;align=left;spacingLeft=6;fontStyle=5;overflow=hidden;fontFamily=Lucida Console;fontColor=#D8DEE9;strokeColor=#D8DEE9;" parent="199" vertex="1">
                    <mxGeometry x="30" width="150" height="30" as="geometry"/>
                </mxCell>
                <mxCell id="358" value="" style="shape=partialRectangle;collapsible=0;dropTarget=0;pointerEvents=0;fillColor=none;top=0;left=0;bottom=1;right=0;points=[[0,0.5],[1,0.5]];portConstraint=eastwest;fontFamily=Lucida Console;fontColor=#D8DEE9;strokeColor=#D8DEE9;" parent="198" vertex="1">
                    <mxGeometry y="60" width="180" height="30" as="geometry"/>
                </mxCell>
                <mxCell id="359" value="FK" style="shape=partialRectangle;connectable=0;fillColor=none;top=0;left=0;bottom=0;right=0;fontStyle=1;overflow=hidden;fontFamily=Lucida Console;fontColor=#D8DEE9;strokeColor=#D8DEE9;" parent="358" vertex="1">
                    <mxGeometry width="30" height="30" as="geometry"/>
                </mxCell>
                <mxCell id="360" value="customerID" style="shape=partialRectangle;connectable=0;fillColor=none;top=0;left=0;bottom=0;right=0;align=left;spacingLeft=6;fontStyle=5;overflow=hidden;fontFamily=Lucida Console;fontColor=#D8DEE9;strokeColor=#D8DEE9;" parent="358" vertex="1">
                    <mxGeometry x="30" width="150" height="30" as="geometry"/>
                </mxCell>
                <mxCell id="211" value="" style="shape=partialRectangle;collapsible=0;dropTarget=0;pointerEvents=0;fillColor=none;top=0;left=0;bottom=0;right=0;points=[[0,0.5],[1,0.5]];portConstraint=eastwest;fontFamily=Lucida Console;fontColor=#D8DEE9;strokeColor=#D8DEE9;" parent="198" vertex="1">
                    <mxGeometry y="90" width="180" height="30" as="geometry"/>
                </mxCell>
                <mxCell id="212" value="" style="shape=partialRectangle;connectable=0;fillColor=none;top=0;left=0;bottom=0;right=0;editable=1;overflow=hidden;fontFamily=Lucida Console;fontColor=#D8DEE9;strokeColor=#D8DEE9;" parent="211" vertex="1">
                    <mxGeometry width="30" height="30" as="geometry"/>
                </mxCell>
                <mxCell id="213" value="address" style="shape=partialRectangle;connectable=0;fillColor=none;top=0;left=0;bottom=0;right=0;align=left;spacingLeft=6;overflow=hidden;fontFamily=Lucida Console;fontColor=#D8DEE9;strokeColor=#D8DEE9;" parent="211" vertex="1">
                    <mxGeometry x="30" width="150" height="30" as="geometry"/>
                </mxCell>
                <mxCell id="214" value="" style="shape=partialRectangle;collapsible=0;dropTarget=0;pointerEvents=0;fillColor=none;top=0;left=0;bottom=0;right=0;points=[[0,0.5],[1,0.5]];portConstraint=eastwest;fontFamily=Lucida Console;fontColor=#D8DEE9;strokeColor=#D8DEE9;" parent="198" vertex="1">
                    <mxGeometry y="120" width="180" height="30" as="geometry"/>
                </mxCell>
                <mxCell id="215" value="" style="shape=partialRectangle;connectable=0;fillColor=none;top=0;left=0;bottom=0;right=0;editable=1;overflow=hidden;fontFamily=Lucida Console;fontColor=#D8DEE9;strokeColor=#D8DEE9;" parent="214" vertex="1">
                    <mxGeometry width="30" height="30" as="geometry"/>
                </mxCell>
                <mxCell id="216" value="city" style="shape=partialRectangle;connectable=0;fillColor=none;top=0;left=0;bottom=0;right=0;align=left;spacingLeft=6;overflow=hidden;fontFamily=Lucida Console;fontColor=#D8DEE9;strokeColor=#D8DEE9;" parent="214" vertex="1">
                    <mxGeometry x="30" width="150" height="30" as="geometry"/>
                </mxCell>
                <mxCell id="217" value="" style="shape=partialRectangle;collapsible=0;dropTarget=0;pointerEvents=0;fillColor=none;top=0;left=0;bottom=0;right=0;points=[[0,0.5],[1,0.5]];portConstraint=eastwest;fontFamily=Lucida Console;fontColor=#D8DEE9;strokeColor=#D8DEE9;" parent="198" vertex="1">
                    <mxGeometry y="150" width="180" height="30" as="geometry"/>
                </mxCell>
                <mxCell id="218" value="" style="shape=partialRectangle;connectable=0;fillColor=none;top=0;left=0;bottom=0;right=0;editable=1;overflow=hidden;fontFamily=Lucida Console;fontColor=#D8DEE9;strokeColor=#D8DEE9;" parent="217" vertex="1">
                    <mxGeometry width="30" height="30" as="geometry"/>
                </mxCell>
                <mxCell id="219" value="state" style="shape=partialRectangle;connectable=0;fillColor=none;top=0;left=0;bottom=0;right=0;align=left;spacingLeft=6;overflow=hidden;fontFamily=Lucida Console;fontColor=#D8DEE9;strokeColor=#D8DEE9;" parent="217" vertex="1">
                    <mxGeometry x="30" width="150" height="30" as="geometry"/>
                </mxCell>
                <mxCell id="220" value="" style="shape=partialRectangle;collapsible=0;dropTarget=0;pointerEvents=0;fillColor=none;top=0;left=0;bottom=0;right=0;points=[[0,0.5],[1,0.5]];portConstraint=eastwest;fontFamily=Lucida Console;fontColor=#D8DEE9;strokeColor=#D8DEE9;" parent="198" vertex="1">
                    <mxGeometry y="180" width="180" height="30" as="geometry"/>
                </mxCell>
                <mxCell id="221" value="" style="shape=partialRectangle;connectable=0;fillColor=none;top=0;left=0;bottom=0;right=0;editable=1;overflow=hidden;fontFamily=Lucida Console;fontColor=#D8DEE9;strokeColor=#D8DEE9;" parent="220" vertex="1">
                    <mxGeometry width="30" height="30" as="geometry"/>
                </mxCell>
                <mxCell id="222" value="zipCode" style="shape=partialRectangle;connectable=0;fillColor=none;top=0;left=0;bottom=0;right=0;align=left;spacingLeft=6;overflow=hidden;fontFamily=Lucida Console;fontColor=#D8DEE9;strokeColor=#D8DEE9;" parent="220" vertex="1">
                    <mxGeometry x="30" width="150" height="30" as="geometry"/>
                </mxCell>
                <mxCell id="223" value="" style="shape=partialRectangle;collapsible=0;dropTarget=0;pointerEvents=0;fillColor=none;top=0;left=0;bottom=0;right=0;points=[[0,0.5],[1,0.5]];portConstraint=eastwest;fontFamily=Lucida Console;fontColor=#D8DEE9;strokeColor=#D8DEE9;" parent="198" vertex="1">
                    <mxGeometry y="210" width="180" height="30" as="geometry"/>
                </mxCell>
                <mxCell id="224" value="" style="shape=partialRectangle;connectable=0;fillColor=none;top=0;left=0;bottom=0;right=0;editable=1;overflow=hidden;fontFamily=Lucida Console;fontColor=#D8DEE9;strokeColor=#D8DEE9;" parent="223" vertex="1">
                    <mxGeometry width="30" height="30" as="geometry"/>
                </mxCell>
                <mxCell id="225" value="country" style="shape=partialRectangle;connectable=0;fillColor=none;top=0;left=0;bottom=0;right=0;align=left;spacingLeft=6;overflow=hidden;fontFamily=Lucida Console;fontColor=#D8DEE9;strokeColor=#D8DEE9;" parent="223" vertex="1">
                    <mxGeometry x="30" width="150" height="30" as="geometry"/>
                </mxCell>
                <mxCell id="237" value="Relationship" style="shape=rhombus;double=1;perimeter=rhombusPerimeter;whiteSpace=wrap;html=1;align=center;fillColor=#88C0D0;fontFamily=Lucida Console;fontColor=#D8DEE9;strokeColor=none;" parent="1" vertex="1">
                    <mxGeometry x="1106" y="797" width="120" height="60" as="geometry"/>
                </mxCell>
                <mxCell id="243" style="edgeStyle=orthogonalEdgeStyle;shape=link;rounded=0;orthogonalLoop=1;jettySize=auto;html=1;exitX=0;exitY=0.5;exitDx=0;exitDy=0;entryX=1;entryY=0.5;entryDx=0;entryDy=0;fontFamily=Lucida Console;fontColor=#D8DEE9;strokeColor=#D8DEE9;" parent="1" source="367" target="237" edge="1">
                    <mxGeometry relative="1" as="geometry"/>
                </mxCell>
                <mxCell id="244" style="edgeStyle=orthogonalEdgeStyle;shape=link;rounded=0;orthogonalLoop=1;jettySize=auto;html=1;exitX=1;exitY=0.5;exitDx=0;exitDy=0;entryX=0;entryY=0.5;entryDx=0;entryDy=0;fontFamily=Lucida Console;fontColor=#D8DEE9;strokeColor=#D8DEE9;" parent="1" source="365" target="237" edge="1">
                    <mxGeometry relative="1" as="geometry"/>
                </mxCell>
                <mxCell id="247" value="Relationship" style="shape=rhombus;double=1;perimeter=rhombusPerimeter;whiteSpace=wrap;html=1;align=center;snapToPoint=0;fixDash=0;comic=0;backgroundOutline=0;metaEdit=0;fillColor=#88C0D0;fontFamily=Lucida Console;fontColor=#D8DEE9;strokeColor=none;" parent="1" vertex="1">
                    <mxGeometry x="1396" y="585" width="120" height="60" as="geometry"/>
                </mxCell>
                <mxCell id="249" value="Payment" style="shape=table;startSize=30;container=1;collapsible=1;childLayout=tableLayout;fixedRows=1;rowLines=0;fontStyle=1;align=center;resizeLast=1;opacity=90;strokeWidth=2;swimlaneFillColor=#4C566A;fillColor=#B48EAD;fontFamily=Lucida Console;fontColor=#D8DEE9;strokeColor=none;" parent="1" vertex="1">
                    <mxGeometry x="1366" y="993" width="180" height="175" as="geometry"/>
                </mxCell>
                <mxCell id="250" value="" style="shape=partialRectangle;collapsible=0;dropTarget=0;pointerEvents=0;fillColor=none;top=0;left=0;bottom=1;right=0;points=[[0,0.5],[1,0.5]];portConstraint=eastwest;fontFamily=Lucida Console;fontColor=#D8DEE9;strokeColor=#D8DEE9;" parent="249" vertex="1">
                    <mxGeometry y="30" width="180" height="30" as="geometry"/>
                </mxCell>
                <mxCell id="251" value="PK" style="shape=partialRectangle;connectable=0;fillColor=none;top=0;left=0;bottom=0;right=0;fontStyle=1;overflow=hidden;fontFamily=Lucida Console;fontColor=#D8DEE9;strokeColor=#D8DEE9;" parent="250" vertex="1">
                    <mxGeometry width="30" height="30" as="geometry"/>
                </mxCell>
                <mxCell id="252" value="paymentID" style="shape=partialRectangle;connectable=0;fillColor=none;top=0;left=0;bottom=0;right=0;align=left;spacingLeft=6;fontStyle=5;overflow=hidden;fontFamily=Lucida Console;fontColor=#D8DEE9;strokeColor=#D8DEE9;" parent="250" vertex="1">
                    <mxGeometry x="30" width="150" height="30" as="geometry"/>
                </mxCell>
                <mxCell id="253" value="" style="shape=partialRectangle;collapsible=0;dropTarget=0;pointerEvents=0;fillColor=none;top=0;left=0;bottom=0;right=0;points=[[0,0.5],[1,0.5]];portConstraint=eastwest;fontFamily=Lucida Console;fontColor=#D8DEE9;strokeColor=#D8DEE9;" parent="249" vertex="1">
                    <mxGeometry y="60" width="180" height="30" as="geometry"/>
                </mxCell>
                <mxCell id="254" value="" style="shape=partialRectangle;connectable=0;fillColor=none;top=0;left=0;bottom=0;right=0;editable=1;overflow=hidden;fontFamily=Lucida Console;fontColor=#D8DEE9;strokeColor=#D8DEE9;" parent="253" vertex="1">
                    <mxGeometry width="30" height="30" as="geometry"/>
                </mxCell>
                <mxCell id="255" value="amount" style="shape=partialRectangle;connectable=0;fillColor=none;top=0;left=0;bottom=0;right=0;align=left;spacingLeft=6;overflow=hidden;fontFamily=Lucida Console;fontColor=#D8DEE9;strokeColor=#D8DEE9;" parent="253" vertex="1">
                    <mxGeometry x="30" width="150" height="30" as="geometry"/>
                </mxCell>
                <mxCell id="256" value="" style="shape=partialRectangle;collapsible=0;dropTarget=0;pointerEvents=0;fillColor=none;top=0;left=0;bottom=0;right=0;points=[[0,0.5],[1,0.5]];portConstraint=eastwest;fontFamily=Lucida Console;fontColor=#D8DEE9;strokeColor=#D8DEE9;" parent="249" vertex="1">
                    <mxGeometry y="90" width="180" height="25" as="geometry"/>
                </mxCell>
                <mxCell id="257" value="" style="shape=partialRectangle;connectable=0;fillColor=none;top=0;left=0;bottom=0;right=0;editable=1;overflow=hidden;fontFamily=Lucida Console;fontColor=#D8DEE9;strokeColor=#D8DEE9;" parent="256" vertex="1">
                    <mxGeometry width="30" height="25" as="geometry"/>
                </mxCell>
                <mxCell id="258" value="date_transiction" style="shape=partialRectangle;connectable=0;fillColor=none;top=0;left=0;bottom=0;right=0;align=left;spacingLeft=6;overflow=hidden;fontFamily=Lucida Console;fontColor=#D8DEE9;strokeColor=#D8DEE9;" parent="256" vertex="1">
                    <mxGeometry x="30" width="150" height="25" as="geometry"/>
                </mxCell>
                <mxCell id="272" value="" style="shape=partialRectangle;collapsible=0;dropTarget=0;pointerEvents=0;fillColor=none;top=0;left=0;bottom=0;right=0;points=[[0,0.5],[1,0.5]];portConstraint=eastwest;fontFamily=Lucida Console;fontColor=#D8DEE9;strokeColor=#D8DEE9;" parent="249" vertex="1">
                    <mxGeometry y="115" width="180" height="30" as="geometry"/>
                </mxCell>
                <mxCell id="273" value="" style="shape=partialRectangle;connectable=0;fillColor=none;top=0;left=0;bottom=0;right=0;editable=1;overflow=hidden;fontFamily=Lucida Console;fontColor=#D8DEE9;strokeColor=#D8DEE9;" parent="272" vertex="1">
                    <mxGeometry width="30" height="30" as="geometry"/>
                </mxCell>
                <mxCell id="274" value="time_transiction" style="shape=partialRectangle;connectable=0;fillColor=none;top=0;left=0;bottom=0;right=0;align=left;spacingLeft=6;overflow=hidden;fontFamily=Lucida Console;fontColor=#D8DEE9;strokeColor=#D8DEE9;" parent="272" vertex="1">
                    <mxGeometry x="30" width="150" height="30" as="geometry"/>
                </mxCell>
                <mxCell id="259" value="" style="shape=partialRectangle;collapsible=0;dropTarget=0;pointerEvents=0;fillColor=none;top=0;left=0;bottom=0;right=0;points=[[0,0.5],[1,0.5]];portConstraint=eastwest;fontFamily=Lucida Console;fontColor=#D8DEE9;strokeColor=#D8DEE9;" parent="249" vertex="1">
                    <mxGeometry y="145" width="180" height="30" as="geometry"/>
                </mxCell>
                <mxCell id="260" value="" style="shape=partialRectangle;connectable=0;fillColor=none;top=0;left=0;bottom=0;right=0;editable=1;overflow=hidden;fontFamily=Lucida Console;fontColor=#D8DEE9;strokeColor=#D8DEE9;" parent="259" vertex="1">
                    <mxGeometry width="30" height="30" as="geometry"/>
                </mxCell>
                <mxCell id="261" value="payment_type" style="shape=partialRectangle;connectable=0;fillColor=none;top=0;left=0;bottom=0;right=0;align=left;spacingLeft=6;overflow=hidden;fontFamily=Lucida Console;fontColor=#D8DEE9;strokeColor=#D8DEE9;" parent="259" vertex="1">
                    <mxGeometry x="30" width="150" height="30" as="geometry"/>
                </mxCell>
                <mxCell id="452" style="edgeStyle=orthogonalEdgeStyle;shape=link;rounded=0;comic=0;orthogonalLoop=1;jettySize=auto;html=1;exitX=0.5;exitY=1;exitDx=0;exitDy=0;entryX=0.5;entryY=0;entryDx=0;entryDy=0;fontFamily=Lucida Console;fontColor=#D8DEE9;strokeColor=#D8DEE9;" parent="1" source="287" target="448" edge="1">
                    <mxGeometry relative="1" as="geometry"/>
                </mxCell>
                <mxCell id="287" value="Room details" style="shape=table;startSize=30;container=1;collapsible=1;childLayout=tableLayout;fixedRows=1;rowLines=0;fontStyle=1;align=center;resizeLast=1;opacity=90;strokeWidth=2;swimlaneFillColor=#4C566A;fillColor=#D08770;fontFamily=Lucida Console;fontColor=#D8DEE9;strokeColor=none;" parent="1" vertex="1">
                    <mxGeometry x="774" y="289" width="180" height="250" as="geometry"/>
                </mxCell>
                <mxCell id="288" value="" style="shape=partialRectangle;collapsible=0;dropTarget=0;pointerEvents=0;fillColor=none;top=0;left=0;bottom=1;right=0;points=[[0,0.5],[1,0.5]];portConstraint=eastwest;fontFamily=Lucida Console;fontColor=#D8DEE9;strokeColor=#D8DEE9;" parent="287" vertex="1">
                    <mxGeometry y="30" width="180" height="30" as="geometry"/>
                </mxCell>
                <mxCell id="289" value="PK" style="shape=partialRectangle;connectable=0;fillColor=none;top=0;left=0;bottom=0;right=0;fontStyle=1;overflow=hidden;fontFamily=Lucida Console;fontColor=#D8DEE9;strokeColor=#D8DEE9;" parent="288" vertex="1">
                    <mxGeometry width="30" height="30" as="geometry"/>
                </mxCell>
                <mxCell id="290" value="room_detalisID" style="shape=partialRectangle;connectable=0;fillColor=none;top=0;left=0;bottom=0;right=0;align=left;spacingLeft=6;fontStyle=5;overflow=hidden;fontFamily=Lucida Console;fontColor=#D8DEE9;strokeColor=#D8DEE9;" parent="288" vertex="1">
                    <mxGeometry x="30" width="150" height="30" as="geometry"/>
                </mxCell>
                <mxCell id="362" value="" style="shape=partialRectangle;collapsible=0;dropTarget=0;pointerEvents=0;fillColor=none;top=0;left=0;bottom=1;right=0;points=[[0,0.5],[1,0.5]];portConstraint=eastwest;fontFamily=Lucida Console;fontColor=#D8DEE9;strokeColor=#D8DEE9;" parent="287" vertex="1">
                    <mxGeometry y="60" width="180" height="30" as="geometry"/>
                </mxCell>
                <mxCell id="363" value="FK" style="shape=partialRectangle;connectable=0;fillColor=none;top=0;left=0;bottom=0;right=0;fontStyle=1;overflow=hidden;fontFamily=Lucida Console;fontColor=#D8DEE9;strokeColor=#D8DEE9;" parent="362" vertex="1">
                    <mxGeometry width="30" height="30" as="geometry"/>
                </mxCell>
                <mxCell id="364" value="roomID" style="shape=partialRectangle;connectable=0;fillColor=none;top=0;left=0;bottom=0;right=0;align=left;spacingLeft=6;fontStyle=5;overflow=hidden;fontFamily=Lucida Console;fontColor=#D8DEE9;strokeColor=#D8DEE9;" parent="362" vertex="1">
                    <mxGeometry x="30" width="150" height="30" as="geometry"/>
                </mxCell>
                <mxCell id="294" value="" style="shape=partialRectangle;collapsible=0;dropTarget=0;pointerEvents=0;fillColor=none;top=0;left=0;bottom=0;right=0;points=[[0,0.5],[1,0.5]];portConstraint=eastwest;fontFamily=Lucida Console;fontColor=#D8DEE9;strokeColor=#D8DEE9;" parent="287" vertex="1">
                    <mxGeometry y="90" width="180" height="30" as="geometry"/>
                </mxCell>
                <mxCell id="295" value="" style="shape=partialRectangle;connectable=0;fillColor=none;top=0;left=0;bottom=0;right=0;editable=1;overflow=hidden;fontFamily=Lucida Console;fontColor=#D8DEE9;strokeColor=#D8DEE9;" parent="294" vertex="1">
                    <mxGeometry width="30" height="30" as="geometry"/>
                </mxCell>
                <mxCell id="296" value="pictures" style="shape=partialRectangle;connectable=0;fillColor=none;top=0;left=0;bottom=0;right=0;align=left;spacingLeft=6;overflow=hidden;fontFamily=Lucida Console;fontColor=#D8DEE9;strokeColor=#D8DEE9;" parent="294" vertex="1">
                    <mxGeometry x="30" width="150" height="30" as="geometry"/>
                </mxCell>
                <mxCell id="297" value="" style="shape=partialRectangle;collapsible=0;dropTarget=0;pointerEvents=0;fillColor=none;top=0;left=0;bottom=0;right=0;points=[[0,0.5],[1,0.5]];portConstraint=eastwest;fontFamily=Lucida Console;fontColor=#D8DEE9;strokeColor=#D8DEE9;" parent="287" vertex="1">
                    <mxGeometry y="120" width="180" height="30" as="geometry"/>
                </mxCell>
                <mxCell id="298" value="" style="shape=partialRectangle;connectable=0;fillColor=none;top=0;left=0;bottom=0;right=0;editable=1;overflow=hidden;fontFamily=Lucida Console;fontColor=#D8DEE9;strokeColor=#D8DEE9;" parent="297" vertex="1">
                    <mxGeometry width="30" height="30" as="geometry"/>
                </mxCell>
                <mxCell id="299" value="descriprion" style="shape=partialRectangle;connectable=0;fillColor=none;top=0;left=0;bottom=0;right=0;align=left;spacingLeft=6;overflow=hidden;fontFamily=Lucida Console;fontColor=#D8DEE9;strokeColor=#D8DEE9;" parent="297" vertex="1">
                    <mxGeometry x="30" width="150" height="30" as="geometry"/>
                </mxCell>
                <mxCell id="306" value="" style="shape=partialRectangle;collapsible=0;dropTarget=0;pointerEvents=0;fillColor=none;top=0;left=0;bottom=0;right=0;points=[[0,0.5],[1,0.5]];portConstraint=eastwest;fontFamily=Lucida Console;fontColor=#D8DEE9;strokeColor=#D8DEE9;" parent="287" vertex="1">
                    <mxGeometry y="150" width="180" height="30" as="geometry"/>
                </mxCell>
                <mxCell id="307" value="" style="shape=partialRectangle;connectable=0;fillColor=none;top=0;left=0;bottom=0;right=0;editable=1;overflow=hidden;fontFamily=Lucida Console;fontColor=#D8DEE9;strokeColor=#D8DEE9;" parent="306" vertex="1">
                    <mxGeometry width="30" height="30" as="geometry"/>
                </mxCell>
                <mxCell id="308" value="beds_numbers" style="shape=partialRectangle;connectable=0;fillColor=none;top=0;left=0;bottom=0;right=0;align=left;spacingLeft=6;overflow=hidden;fontFamily=Lucida Console;fontColor=#D8DEE9;strokeColor=#D8DEE9;" parent="306" vertex="1">
                    <mxGeometry x="30" width="150" height="30" as="geometry"/>
                </mxCell>
                <mxCell id="309" value="" style="shape=partialRectangle;collapsible=0;dropTarget=0;pointerEvents=0;fillColor=none;top=0;left=0;bottom=0;right=0;points=[[0,0.5],[1,0.5]];portConstraint=eastwest;fontFamily=Lucida Console;fontColor=#D8DEE9;strokeColor=#D8DEE9;" parent="287" vertex="1">
                    <mxGeometry y="180" width="180" height="30" as="geometry"/>
                </mxCell>
                <mxCell id="310" value="" style="shape=partialRectangle;connectable=0;fillColor=none;top=0;left=0;bottom=0;right=0;editable=1;overflow=hidden;fontFamily=Lucida Console;fontColor=#D8DEE9;strokeColor=#D8DEE9;" parent="309" vertex="1">
                    <mxGeometry width="30" height="30" as="geometry"/>
                </mxCell>
                <mxCell id="311" value="bed_type" style="shape=partialRectangle;connectable=0;fillColor=none;top=0;left=0;bottom=0;right=0;align=left;spacingLeft=6;overflow=hidden;fontFamily=Lucida Console;fontColor=#D8DEE9;strokeColor=#D8DEE9;" parent="309" vertex="1">
                    <mxGeometry x="30" width="150" height="30" as="geometry"/>
                </mxCell>
                <mxCell id="312" value="" style="shape=partialRectangle;collapsible=0;dropTarget=0;pointerEvents=0;fillColor=none;top=0;left=0;bottom=0;right=0;points=[[0,0.5],[1,0.5]];portConstraint=eastwest;fontFamily=Lucida Console;fontColor=#D8DEE9;strokeColor=#D8DEE9;" parent="287" vertex="1">
                    <mxGeometry y="210" width="180" height="30" as="geometry"/>
                </mxCell>
                <mxCell id="313" value="" style="shape=partialRectangle;connectable=0;fillColor=none;top=0;left=0;bottom=0;right=0;editable=1;overflow=hidden;fontFamily=Lucida Console;fontColor=#D8DEE9;strokeColor=#D8DEE9;" parent="312" vertex="1">
                    <mxGeometry width="30" height="30" as="geometry"/>
                </mxCell>
                <mxCell id="314" value="bathroom_type" style="shape=partialRectangle;connectable=0;fillColor=none;top=0;left=0;bottom=0;right=0;align=left;spacingLeft=6;overflow=hidden;fontFamily=Lucida Console;fontColor=#D8DEE9;strokeColor=#D8DEE9;" parent="312" vertex="1">
                    <mxGeometry x="30" width="150" height="30" as="geometry"/>
                </mxCell>
                <mxCell id="404" style="edgeStyle=orthogonalEdgeStyle;shape=link;rounded=0;comic=0;orthogonalLoop=1;jettySize=auto;html=1;exitX=0.5;exitY=0;exitDx=0;exitDy=0;entryX=0.5;entryY=1;entryDx=0;entryDy=0;fontFamily=Lucida Console;fontColor=#D8DEE9;strokeColor=#D8DEE9;" parent="1" source="321" target="237" edge="1">
                    <mxGeometry relative="1" as="geometry"/>
                </mxCell>
                <mxCell id="321" value="ID Links" style="shape=table;startSize=30;container=1;collapsible=1;childLayout=tableLayout;fixedRows=1;rowLines=0;fontStyle=1;align=center;resizeLast=1;opacity=90;strokeWidth=2;swimlaneFillColor=#4C566A;fillColor=#5E81AC;fontFamily=Lucida Console;fontColor=#D8DEE9;strokeColor=none;" parent="1" vertex="1">
                    <mxGeometry x="1076" y="1012" width="180" height="150" as="geometry"/>
                </mxCell>
                <mxCell id="322" value="" style="shape=partialRectangle;collapsible=0;dropTarget=0;pointerEvents=0;fillColor=none;top=0;left=0;bottom=1;right=0;points=[[0,0.5],[1,0.5]];portConstraint=eastwest;fontFamily=Lucida Console;fontColor=#D8DEE9;strokeColor=#D8DEE9;" parent="321" vertex="1">
                    <mxGeometry y="30" width="180" height="30" as="geometry"/>
                </mxCell>
                <mxCell id="323" value="FK" style="shape=partialRectangle;connectable=0;fillColor=none;top=0;left=0;bottom=0;right=0;fontStyle=1;overflow=hidden;fontFamily=Lucida Console;fontColor=#D8DEE9;strokeColor=#D8DEE9;" parent="322" vertex="1">
                    <mxGeometry width="30" height="30" as="geometry"/>
                </mxCell>
                <mxCell id="324" value="bookingID" style="shape=partialRectangle;connectable=0;fillColor=none;top=0;left=0;bottom=0;right=0;align=left;spacingLeft=6;fontStyle=5;overflow=hidden;fontFamily=Lucida Console;fontColor=#D8DEE9;strokeColor=#D8DEE9;" parent="322" vertex="1">
                    <mxGeometry x="30" width="150" height="30" as="geometry"/>
                </mxCell>
                <mxCell id="325" value="" style="shape=partialRectangle;collapsible=0;dropTarget=0;pointerEvents=0;fillColor=none;top=0;left=0;bottom=1;right=0;points=[[0,0.5],[1,0.5]];portConstraint=eastwest;fontFamily=Lucida Console;fontColor=#D8DEE9;strokeColor=#D8DEE9;" parent="321" vertex="1">
                    <mxGeometry y="60" width="180" height="30" as="geometry"/>
                </mxCell>
                <mxCell id="326" value="FK" style="shape=partialRectangle;connectable=0;fillColor=none;top=0;left=0;bottom=0;right=0;fontStyle=1;overflow=hidden;fontFamily=Lucida Console;fontColor=#D8DEE9;strokeColor=#D8DEE9;" parent="325" vertex="1">
                    <mxGeometry width="30" height="30" as="geometry"/>
                </mxCell>
                <mxCell id="327" value="roomID" style="shape=partialRectangle;connectable=0;fillColor=none;top=0;left=0;bottom=0;right=0;align=left;spacingLeft=6;fontStyle=5;overflow=hidden;fontFamily=Lucida Console;fontColor=#D8DEE9;strokeColor=#D8DEE9;" parent="325" vertex="1">
                    <mxGeometry x="30" width="150" height="30" as="geometry"/>
                </mxCell>
                <mxCell id="328" value="" style="shape=partialRectangle;collapsible=0;dropTarget=0;pointerEvents=0;fillColor=none;top=0;left=0;bottom=1;right=0;points=[[0,0.5],[1,0.5]];portConstraint=eastwest;fontFamily=Lucida Console;fontColor=#D8DEE9;strokeColor=#D8DEE9;" parent="321" vertex="1">
                    <mxGeometry y="90" width="180" height="30" as="geometry"/>
                </mxCell>
                <mxCell id="329" value="FK" style="shape=partialRectangle;connectable=0;fillColor=none;top=0;left=0;bottom=0;right=0;fontStyle=1;overflow=hidden;fontFamily=Lucida Console;fontColor=#D8DEE9;strokeColor=#D8DEE9;" parent="328" vertex="1">
                    <mxGeometry width="30" height="30" as="geometry"/>
                </mxCell>
                <mxCell id="330" value="customerID" style="shape=partialRectangle;connectable=0;fillColor=none;top=0;left=0;bottom=0;right=0;align=left;spacingLeft=6;fontStyle=5;overflow=hidden;fontFamily=Lucida Console;fontColor=#D8DEE9;strokeColor=#D8DEE9;" parent="328" vertex="1">
                    <mxGeometry x="30" width="150" height="30" as="geometry"/>
                </mxCell>
                <mxCell id="349" value="" style="shape=partialRectangle;collapsible=0;dropTarget=0;pointerEvents=0;fillColor=none;top=0;left=0;bottom=1;right=0;points=[[0,0.5],[1,0.5]];portConstraint=eastwest;fontFamily=Lucida Console;fontColor=#D8DEE9;strokeColor=#D8DEE9;" parent="321" vertex="1">
                    <mxGeometry y="120" width="180" height="30" as="geometry"/>
                </mxCell>
                <mxCell id="350" value="FK" style="shape=partialRectangle;connectable=0;fillColor=none;top=0;left=0;bottom=0;right=0;fontStyle=1;overflow=hidden;fontFamily=Lucida Console;fontColor=#D8DEE9;strokeColor=#D8DEE9;" parent="349" vertex="1">
                    <mxGeometry width="30" height="30" as="geometry"/>
                </mxCell>
                <mxCell id="351" value="paymentID" style="shape=partialRectangle;connectable=0;fillColor=none;top=0;left=0;bottom=0;right=0;align=left;spacingLeft=6;fontStyle=5;overflow=hidden;fontFamily=Lucida Console;fontColor=#D8DEE9;strokeColor=#D8DEE9;" parent="349" vertex="1">
                    <mxGeometry x="30" width="150" height="30" as="geometry"/>
                </mxCell>
                <mxCell id="357" style="edgeStyle=orthogonalEdgeStyle;shape=link;rounded=0;comic=0;orthogonalLoop=1;jettySize=auto;html=1;exitX=0.5;exitY=0;exitDx=0;exitDy=0;entryX=0.5;entryY=1;entryDx=0;entryDy=0;fontFamily=Lucida Console;fontColor=#D8DEE9;strokeColor=#D8DEE9;" parent="1" source="354" target="247" edge="1">
                    <mxGeometry relative="1" as="geometry"/>
                </mxCell>
                <mxCell id="354" value="1" style="text;html=1;fillColor=none;align=center;verticalAlign=middle;whiteSpace=wrap;rounded=0;fontFamily=Lucida Console;fontColor=#D8DEE9;strokeColor=#D8DEE9;" parent="1" vertex="1">
                    <mxGeometry x="1446" y="661" width="20" height="16" as="geometry"/>
                </mxCell>
                <mxCell id="365" value="*" style="text;html=1;fillColor=none;align=center;verticalAlign=middle;whiteSpace=wrap;rounded=0;fontFamily=Lucida Console;fontColor=#D8DEE9;strokeColor=#D8DEE9;" parent="1" vertex="1">
                    <mxGeometry x="1076" y="817" width="20" height="20" as="geometry"/>
                </mxCell>
                <mxCell id="366" style="edgeStyle=orthogonalEdgeStyle;shape=link;rounded=0;orthogonalLoop=1;jettySize=auto;html=1;exitX=1;exitY=0.5;exitDx=0;exitDy=0;entryX=0;entryY=0.5;entryDx=0;entryDy=0;fontFamily=Lucida Console;fontColor=#D8DEE9;strokeColor=#D8DEE9;" parent="1" source="74" target="365" edge="1">
                    <mxGeometry relative="1" as="geometry">
                        <mxPoint x="954" y="827" as="sourcePoint"/>
                        <mxPoint x="1106" y="827" as="targetPoint"/>
                    </mxGeometry>
                </mxCell>
                <mxCell id="367" value="1" style="text;html=1;fillColor=none;align=center;verticalAlign=middle;whiteSpace=wrap;rounded=0;fontFamily=Lucida Console;fontColor=#D8DEE9;strokeColor=#D8DEE9;" parent="1" vertex="1">
                    <mxGeometry x="1236" y="817" width="20" height="20" as="geometry"/>
                </mxCell>
                <mxCell id="368" style="edgeStyle=orthogonalEdgeStyle;shape=link;rounded=0;orthogonalLoop=1;jettySize=auto;html=1;exitX=0;exitY=0.5;exitDx=0;exitDy=0;entryX=1;entryY=0.5;entryDx=0;entryDy=0;fontFamily=Lucida Console;fontColor=#D8DEE9;strokeColor=#D8DEE9;" parent="1" source="102" target="367" edge="1">
                    <mxGeometry relative="1" as="geometry">
                        <mxPoint x="1366" y="827" as="sourcePoint"/>
                        <mxPoint x="1226" y="827" as="targetPoint"/>
                    </mxGeometry>
                </mxCell>
                <mxCell id="375" style="edgeStyle=orthogonalEdgeStyle;shape=link;rounded=0;comic=0;orthogonalLoop=1;jettySize=auto;html=1;exitX=0.5;exitY=0;exitDx=0;exitDy=0;entryX=0.5;entryY=0.993;entryDx=0;entryDy=0;entryPerimeter=0;fontFamily=Lucida Console;fontColor=#D8DEE9;strokeColor=#D8DEE9;" parent="1" source="378" target="349" edge="1">
                    <mxGeometry relative="1" as="geometry"/>
                </mxCell>
                <mxCell id="376" style="edgeStyle=orthogonalEdgeStyle;shape=link;rounded=1;comic=0;orthogonalLoop=1;jettySize=auto;html=1;exitX=0;exitY=0.5;exitDx=0;exitDy=0;entryX=0.51;entryY=1.015;entryDx=0;entryDy=0;entryPerimeter=0;fontFamily=Lucida Console;fontColor=#D8DEE9;strokeColor=#D8DEE9;" parent="1" source="372" target="148" edge="1">
                    <mxGeometry relative="1" as="geometry"/>
                </mxCell>
                <mxCell id="390" style="edgeStyle=orthogonalEdgeStyle;shape=link;rounded=1;comic=0;orthogonalLoop=1;jettySize=auto;html=1;exitX=1;exitY=0.5;exitDx=0;exitDy=0;entryX=0.52;entryY=1.011;entryDx=0;entryDy=0;entryPerimeter=0;fontFamily=Lucida Console;fontColor=#D8DEE9;sketch=0;shadow=0;strokeColor=#D8DEE9;" parent="1" source="372" target="259" edge="1">
                    <mxGeometry relative="1" as="geometry"/>
                </mxCell>
                <mxCell id="372" value="Relationship" style="shape=rhombus;double=1;perimeter=rhombusPerimeter;whiteSpace=wrap;html=1;align=center;fillColor=#88C0D0;fontFamily=Lucida Console;fontColor=#D8DEE9;strokeColor=none;" parent="1" vertex="1">
                    <mxGeometry x="1106" y="1234" width="120" height="60" as="geometry"/>
                </mxCell>
                <mxCell id="378" value="1" style="text;html=1;fillColor=none;align=center;verticalAlign=middle;whiteSpace=wrap;rounded=0;fontFamily=Lucida Console;fontColor=#D8DEE9;strokeColor=#D8DEE9;" parent="1" vertex="1">
                    <mxGeometry x="1156" y="1205" width="20" height="20" as="geometry"/>
                </mxCell>
                <mxCell id="379" style="edgeStyle=orthogonalEdgeStyle;shape=link;rounded=0;comic=0;orthogonalLoop=1;jettySize=auto;html=1;exitX=0.5;exitY=0;exitDx=0;exitDy=0;entryX=0.5;entryY=0.993;entryDx=0;entryDy=0;entryPerimeter=0;fontFamily=Lucida Console;fontColor=#D8DEE9;strokeColor=#D8DEE9;" parent="1" source="372" target="378" edge="1">
                    <mxGeometry relative="1" as="geometry">
                        <mxPoint x="1166" y="1234" as="sourcePoint"/>
                        <mxPoint x="1166" y="1161.79" as="targetPoint"/>
                    </mxGeometry>
                </mxCell>
                <mxCell id="398" value="1" style="text;html=1;fillColor=none;align=center;verticalAlign=middle;whiteSpace=wrap;rounded=0;fontFamily=Lucida Console;fontColor=#D8DEE9;strokeColor=#D8DEE9;" parent="1" vertex="1">
                    <mxGeometry x="1236" y="1241" width="20" height="20" as="geometry"/>
                </mxCell>
                <mxCell id="402" value="1" style="text;html=1;fillColor=none;align=center;verticalAlign=middle;whiteSpace=wrap;rounded=0;fontFamily=Lucida Console;fontColor=#D8DEE9;strokeColor=#D8DEE9;" parent="1" vertex="1">
                    <mxGeometry x="1076" y="1241" width="20" height="20" as="geometry"/>
                </mxCell>
                <mxCell id="415" style="edgeStyle=orthogonalEdgeStyle;shape=link;rounded=0;orthogonalLoop=1;jettySize=auto;html=1;exitX=0.5;exitY=1;exitDx=0;exitDy=0;entryX=0.5;entryY=0;entryDx=0;entryDy=0;snapToPoint=0;fixDash=0;comic=0;backgroundOutline=0;metaEdit=0;fontFamily=Lucida Console;fontColor=#D8DEE9;strokeColor=#D8DEE9;" parent="1" source="417" edge="1">
                    <mxGeometry relative="1" as="geometry">
                        <mxPoint x="1456" y="585" as="targetPoint"/>
                    </mxGeometry>
                </mxCell>
                <mxCell id="417" value="1" style="text;html=1;fillColor=none;align=center;verticalAlign=middle;whiteSpace=wrap;rounded=0;fontFamily=Lucida Console;fontColor=#D8DEE9;strokeColor=#D8DEE9;" parent="1" vertex="1">
                    <mxGeometry x="1446" y="554" width="20" height="16" as="geometry"/>
                </mxCell>
                <mxCell id="444" value="Relationship" style="shape=rhombus;double=1;perimeter=rhombusPerimeter;whiteSpace=wrap;html=1;align=center;snapToPoint=0;fixDash=0;comic=0;backgroundOutline=0;metaEdit=0;fillColor=#88C0D0;fontFamily=Lucida Console;fontColor=#D8DEE9;strokeColor=none;" parent="1" vertex="1">
                    <mxGeometry x="804" y="584.5" width="120" height="60" as="geometry"/>
                </mxCell>
                <mxCell id="445" style="edgeStyle=orthogonalEdgeStyle;shape=link;rounded=0;comic=0;orthogonalLoop=1;jettySize=auto;html=1;exitX=0.5;exitY=0;exitDx=0;exitDy=0;entryX=0.5;entryY=1;entryDx=0;entryDy=0;fontFamily=Lucida Console;fontColor=#D8DEE9;strokeColor=#D8DEE9;" parent="1" source="446" target="444" edge="1">
                    <mxGeometry relative="1" as="geometry"/>
                </mxCell>
                <mxCell id="446" value="*" style="text;html=1;fillColor=none;align=center;verticalAlign=middle;whiteSpace=wrap;rounded=0;fontFamily=Lucida Console;fontColor=#D8DEE9;strokeColor=#D8DEE9;" parent="1" vertex="1">
                    <mxGeometry x="854" y="660.5" width="20" height="16" as="geometry"/>
                </mxCell>
                <mxCell id="447" style="edgeStyle=orthogonalEdgeStyle;shape=link;rounded=0;orthogonalLoop=1;jettySize=auto;html=1;exitX=0.5;exitY=1;exitDx=0;exitDy=0;entryX=0.5;entryY=0;entryDx=0;entryDy=0;snapToPoint=0;fixDash=0;comic=0;backgroundOutline=0;metaEdit=0;fontFamily=Lucida Console;fontColor=#D8DEE9;strokeColor=#D8DEE9;" parent="1" source="448" edge="1">
                    <mxGeometry relative="1" as="geometry">
                        <mxPoint x="864" y="584.5" as="targetPoint"/>
                    </mxGeometry>
                </mxCell>
                <mxCell id="448" value="*" style="text;html=1;fillColor=none;align=center;verticalAlign=middle;whiteSpace=wrap;rounded=0;fontFamily=Lucida Console;fontColor=#D8DEE9;strokeColor=#D8DEE9;" parent="1" vertex="1">
                    <mxGeometry x="854" y="553.5" width="20" height="16" as="geometry"/>
                </mxCell>
                <mxCell id="457" style="edgeStyle=orthogonalEdgeStyle;shape=link;rounded=1;comic=0;orthogonalLoop=1;jettySize=auto;html=1;exitX=1;exitY=0.5;exitDx=0;exitDy=0;entryX=0.52;entryY=1.011;entryDx=0;entryDy=0;entryPerimeter=0;fontFamily=Lucida Console;fontColor=#D8DEE9;sketch=0;shadow=0;strokeColor=#D8DEE9;" parent="1" edge="1">
                    <mxGeometry relative="1" as="geometry">
                        <mxPoint x="1226" y="1264.21" as="sourcePoint"/>
                        <mxPoint x="1459.6" y="1173.54" as="targetPoint"/>
                    </mxGeometry>
                </mxCell>
                <mxCell id="458" style="edgeStyle=orthogonalEdgeStyle;shape=link;rounded=0;comic=0;orthogonalLoop=1;jettySize=auto;html=1;exitX=0.5;exitY=0;exitDx=0;exitDy=0;entryX=0.5;entryY=0.993;entryDx=0;entryDy=0;entryPerimeter=0;fontFamily=Lucida Console;fontColor=#D8DEE9;strokeColor=#D8DEE9;" parent="1" edge="1">
                    <mxGeometry relative="1" as="geometry">
                        <mxPoint x="1166" y="1205.21" as="sourcePoint"/>
                        <mxPoint x="1166" y="1162" as="targetPoint"/>
                    </mxGeometry>
                </mxCell>
                <mxCell id="463" style="edgeStyle=entityRelationEdgeStyle;rounded=1;sketch=0;orthogonalLoop=1;jettySize=auto;html=1;exitX=0;exitY=0;exitDx=0;exitDy=0;entryX=0.258;entryY=0.5;entryDx=0;entryDy=0;entryPerimeter=0;shadow=0;strokeColor=none;" parent="1" source="372" target="372" edge="1">
                    <mxGeometry relative="1" as="geometry"/>
                </mxCell>
            </root>
        </mxGraphModel>
    </diagram>
</mxfile>